inDegrees=no
num_controls=7
num_derivatives=13
num_iterations=224
num_multipliers=7
num_parameters=0
num_slacks=7
num_states=26
objective=5.843837
objective_accelerations=0.701308
objective_balance=0.112097
objective_effort=0.485883
objective_height=4.524038
objective_ligament=0.020511
solver_duration=2647.275809
status=Solve_Succeeded
success=true
DataType=double
version=3
OpenSimVersion=4.4-2022-07-23-0e9fedc
endheader
time	/jointset/ground_pelvis/pelvis_tilt/value	/jointset/ground_pelvis/pelvis_tx/value	/jointset/ground_pelvis/pelvis_ty/value	/jointset/hip_l/hip_flexion_l/value	/jointset/hip_l/hip_adduction_l/value	/jointset/hip_l/hip_rotation_l/value	/jointset/back/lumbar_extension/value	/jointset/patellofemoral_l/patellar_flexion_l/value	/jointset/knee_l/knee_flexion_l/value	/jointset/knee_l/knee_adduction_l/value	/jointset/knee_l/knee_rotation_l/value	/jointset/ankle_l/ankle_angle_l/value	/jointset/subtalar_l/subtalar_angle_l/value	/jointset/ground_pelvis/pelvis_tilt/speed	/jointset/ground_pelvis/pelvis_tx/speed	/jointset/ground_pelvis/pelvis_ty/speed	/jointset/hip_l/hip_flexion_l/speed	/jointset/hip_l/hip_adduction_l/speed	/jointset/hip_l/hip_rotation_l/speed	/jointset/back/lumbar_extension/speed	/jointset/patellofemoral_l/patellar_flexion_l/speed	/jointset/knee_l/knee_flexion_l/speed	/jointset/knee_l/knee_adduction_l/speed	/jointset/knee_l/knee_rotation_l/speed	/jointset/ankle_l/ankle_angle_l/speed	/jointset/subtalar_l/subtalar_angle_l/speed	/forceset/tau_hip_flexion_l	/forceset/tau_hip_adduction_l	/forceset/tau_hip_rotation_l	/forceset/tau_knee_flexion_l	/forceset/tau_ankle_angle_l	/forceset/tau_subtalar_angle_l	/forceset/tau_lumbar_extension	lambda_cid13_p0	lambda_cid13_p1	lambda_cid13_p2	lambda_cid13_p3	lambda_cid13_p4	lambda_cid13_p5	lambda_cid14_p0	/jointset/ground_pelvis/pelvis_tilt/accel	/jointset/ground_pelvis/pelvis_tx/accel	/jointset/ground_pelvis/pelvis_ty/accel	/jointset/hip_l/hip_flexion_l/accel	/jointset/hip_l/hip_adduction_l/accel	/jointset/hip_l/hip_rotation_l/accel	/jointset/back/lumbar_extension/accel	/jointset/patellofemoral_l/patellar_flexion_l/accel	/jointset/knee_l/knee_flexion_l/accel	/jointset/knee_l/knee_adduction_l/accel	/jointset/knee_l/knee_rotation_l/accel	/jointset/ankle_l/ankle_angle_l/accel	/jointset/subtalar_l/subtalar_angle_l/accel	gamma_cid13_p0	gamma_cid13_p1	gamma_cid13_p2	gamma_cid13_p3	gamma_cid13_p4	gamma_cid13_p5	gamma_cid14_p0
1	-0.7393516401274437	-0.1447876825072064	0.5686201824211922	2.094395047663435	-0.2941727217374662	0.1474531695108413	-0.4363317162148767	1.230960311148868	1.230960311148348	-0.1745302966278492	0.1745324283536148	0.07149723016025518	-0.03218492315344691	-0.01097793361866312	0.0008665888059092916	-0.003164487472918517	0.01657116955937005	0.0007999323621151724	0.00322092723298519	-1.630540068004264e-05	0.008241446711629715	0.008241446711629494	1.412588353758413e-06	-3.234724762526935e-07	0.003280375961597473	0.001440439675358214	-0.4904257139161297	-0.0005245176710357493	-0.01553449339006846	-0.2228158410311632	0.1306360097777932	0.02864074471766084	0.3806295719937194	-5.06771011410834	-11.34075812956153	1.165054494367944	9.834324604435263	-738.3979877698087	-40.18880126703855	-0.3449457820131802	2.108831256639901	0.2582238959289969	1.819638499273134	-6.77463735003926	-0.4244973148239555	-1.792868984281669	-0.01614256821950728	-4.787794520624157	-4.78779452062417	-0.04447250665664509	0.01584852493692545	-0.4035977876754851	-0.4785564787441251	7.771623934483116e-10	3.36266850482543e-09	-5.808819381659604e-09	-1.290766251257024e-11	1.014652670913519e-09	-2.71136700304301e-09	1.412489049105136e-09
1.01	-0.7393565964399277	-0.1447661391334994	0.5686794456590559	2.094222761709549	-0.294184986601681	0.1473948487443268	-0.4363318272031054	1.230803500007408	1.230803500006205	-0.1745302905691323	0.1745324129159584	0.07151011824394364	-0.03219336351014708	0.01000256103297994	0.003446886591388562	0.01501867961180664	-0.05104649115694637	-0.003250385803819842	-0.01488407415453852	-5.92398686445317e-06	-0.03960159533577783	-0.03960159533577833	7.624330852371152e-07	-2.243879673239356e-06	-0.0006981749222533685	-0.003124811510190972	-0.4905514418354081	-0.0004768018283726743	-0.01554226485628569	-0.2227355202500339	0.1306161807090139	0.0286902239038771	0.3807613497903861	-5.073551122795735	-11.36268165359618	1.170214372168395	9.77030076675015	-738.4578545649855	-40.22060630710593	-0.3467373588204692	2.095041699739528	0.2586534570988522	1.817886312866009	-6.7580505454252	-0.3949231489529893	-1.819169103476701	0.009623735769625037	-4.782246052217182	-4.782246052217226	0.02228101917102124	-0.008139755828165987	-0.3942958545080566	-0.444956136726283	-3.208569054365552e-09	-5.603770549553795e-09	2.121612323649693e-08	3.162151078820449e-09	-5.856226469028132e-09	2.504282869764576e-08	-5.155622463960054e-09
1.02	-0.7391512711798305	-0.1447186486344894	0.5689205866677257	2.093373755125903	-0.2942376794638498	0.1471555072864391	-0.4363318353293453	1.230168321044391	1.230168321042502	-0.1745302625541471	0.1745323927877749	0.07148335839564009	-0.03224734571835593	0.03107838089714234	0.006056013866518031	0.03321106668828405	-0.1187729563931595	-0.007285667228743369	-0.03298321104162119	4.267010449798556e-06	-0.08743211759990975	-0.08743211759991014	5.803843135535679e-06	-1.261578075973509e-06	-0.004649210436830671	-0.00766793062637882	-0.4906771697546829	-0.0004290859857103859	-0.01555003632250271	-0.2226551994689043	0.1305963516402343	0.0287397030900924	0.3808931275870571	-5.084786331011491	-11.38324301555763	1.174680135145426	9.724149633216008	-738.5894828883482	-40.21570003161952	-0.3539941798048798	2.12789629914376	0.2639897938590411	1.821482497623581	-6.796398254018597	-0.4214899666216705	-1.791696084193467	-0.01618065151982654	-4.785290563969026	-4.785290563968959	-0.04333419359289348	0.01642906669579555	-0.3980947138207719	-0.4741300648718694	-6.600505221466406e-09	-1.481647148288943e-08	4.911470680354828e-08	4.565533937250372e-09	-1.198225798268556e-08	5.259241147563707e-08	-1.189195492146125e-08
1.03	-0.7387348641558882	-0.1446449222345598	0.5693436053795761	2.091847262576269	-0.2943306060716248	0.1467352721720802	-0.4363317530951437	1.229054955097378	1.22905495509588	-0.1745301901968095	0.1745323962895208	0.07141710499822831	-0.03234662491877006	0.0522037303802577	0.00869411218486415	0.0513850413404713	-0.1865116039776543	-0.01129200103823773	-0.05105623573760133	1.098191003085575e-05	-0.1352333794824181	-0.1352333794824175	7.529774503070497e-06	1.565504247379391e-06	-0.008608630671609689	-0.0121809979089335	-0.4901499373099705	-0.0003497832463434469	-0.01558855020134377	-0.2226547466558967	0.130818213482381	0.02884779180095389	0.3805873088383735	-4.988760651274359	-11.45096372759971	1.190004882632744	9.594391427731821	-738.2704474796743	-40.30169213330526	-0.3669618485693077	2.104958813248234	0.2644479592024463	1.81420614059493	-6.760507417715273	-0.3890650446072575	-1.813984595293823	0.008917872502944988	-4.776386385530762	-4.776386385530663	0.02174763678160675	-0.007869414464023748	-0.3959388843934253	-0.4388636744359359	-9.986382253049776e-09	-2.403168529254096e-08	7.702220507415979e-08	5.950838470344539e-09	-1.810068901036049e-08	8.013990636666209e-08	-1.86300039192118e-08
